#!OML:ASF E:/inclinewalkrobotboard/Project1/Captureday1/Session1/subject1.ASF
:FULLY-SPECIFIED
:DEGREES
388
root 0 0 0 -1.833450248366797 -6.161746774188807 -7.494943985632988
lowerback 8.5136523412257 2.9458901375600655 5.991960500794866
upperback -0.021948707748372 4.570481539520581 0.9971685667378215
thorax -4.652203580358854 2.136350383397879 -2.89350331390254
lowerneck -13.385618618369184 -3.3357019531105987 -1.6078088743566301
upperneck 12.661661063881617 -4.721157714404921 3.2101172600862933
head 6.052321999895899 -2.158354429974553 0.8566508303349685
rclavicle -4.033997105647945E-15 -1.2723632389505545E-15
rhumerus -30.625454046678676 -17.060406849658523 -84.25155151038156
rradius 21.44282564899811
rwrist 15.103066928088577
rhand -19.21514809001551 30.850825019813975
rfingers 7.1250199999999975
rthumb 7.1136660142398656 0.7750859304164948
lclavicle -5.096685707923816E-15 -1.0793879710916712E-15
lhumerus -35.09098471033509 8.485129357431822 79.80335481017637
lradius 16.02774384312202
lwrist -1.883043287279437
lhand -27.090985791562744 27.143395851849
lfingers 7.125019999999985
lthumb -0.5567854840759052 57.20222906276395
rfemur -9.380765430126916 5.725153239665772 29.161700959713695
rtibia 39.0875062104085
rfoot -9.97556558186615 -6.058996681318105
rtoes 5.201575389188208
lfemur -20.287176187016218 0.6020503934101504 -16.4946508081335
ltibia 38.999858788048144
lfoot -1.2484400842314454 -4.845352063180005
ltoes -3.9893525594203645
389
root 0 0 0 -1.8700082203838893 -6.149364931902305 -7.40934398251636
lowerback 8.559261553089115 2.9677147211106503 5.884042444889664
upperback -0.0018665489252852746 4.5871964888867955 0.9756699711444303
thorax -4.655726406924876 2.1485336815934977 -2.855708231186856
lowerneck -13.250531887757397 -3.381705953158508 -1.6363461746300196
upperneck 12.66434832632218 -4.794500051081621 3.325865315091464
head 6.037989644402333 -2.188313733961488 0.8945058504625689
rclavicle -3.781232067692294E-15 -1.4285944865354874E-15
rhumerus -30.69148606286412 -17.058424801866614 -84.22031735482147
rradius 21.13454249813214
rwrist 14.748256252390942
rhand -19.106976242250667 30.84501906100011
rfingers 7.125019999999998
rthumb 7.216728852335017 0.7821647131223344
lclavicle -4.873449177778151E-15 -1.1249007097925375E-15
lhumerus -35.084849457806705 8.434109334237768 79.71131764873208
lradius 16.158432581235537
lwrist -1.7620413750527546
lhand -27.14319114945966 27.201625594396887
lfingers 7.125019999999986
lthumb -0.6065725051577164 57.26773040649127
rfemur -9.7104816526092 5.659311676872473 28.947126837907867
rtibia 39.13384580032157
rfoot -9.830194596115167 -6.100617625888763
rtoes 5.136315667010513
lfemur -19.845618534977795 0.46484779377680363 -16.718397897181767
ltibia 38.62017305150434
lfoot -1.4907350435249427 -4.751763896709345
ltoes -3.706704620407642
390
root 0 0 0 -1.9022665740882732 -6.132771534293058 -7.33854755682057
lowerback 8.620218387673683 2.980058489011511 5.79201906551652
upperback 0.027177978704016503 4.594104345503379 0.9632365749785017
thorax -4.658561365750841 2.155054556484912 -2.8169310122983373
lowerneck -13.13934635717204 -3.4202871119869664 -1.6558410003265212
upperneck 12.693555376497748 -4.853727918700002 3.406992732622487
head 6.035252433990807 -2.213099014118394 0.9199969194282356
rclavicle -3.576957119792766E-15 -1.5241996435211535E-15
rhumerus -30.70411124444533 -17.110546992087045 -84.14439445513673
rradius 20.957751711793364
rwrist 14.447215945015607
rhand -19.039792053508346 30.829368054665984
rfingers 7.125019999999998
rthumb 7.280489732594072 0.7748400046044779
lclavicle -4.688878616885596E-15 -1.1559632296130594E-15
lhumerus -35.073607713036346 8.374532331136042 79.6504558534392
lradius 16.28337017136571
lwrist -1.650079022207096
lhand -27.183798427521452 27.25069448119085
lfingers 7.125019999999987
lthumb -0.6451403973621268 57.32218672183274
rfemur -10.073276237209182 5.580932381539204 28.75179204304918
rtibia 39.36032700834999
rfoot -9.628301241850751 -6.134232419911828
rtoes 5.135071010167865
lfemur -19.43150405898159 0.3313661162537609 -16.92479825018292
ltibia 38.28141762335166
lfoot -1.7035264100233682 -4.671678830196404
ltoes -3.432248885903121
391
root 0 0 0 -1.9340248887145122 -6.117703756193976 -7.27597719413369
lowerback 8.68887747475359 2.98515965570335 5.713350943716966
upperback 0.06479307408488519 4.593245585333463 0.9574749864161002
thorax -4.656587060593014 2.1571860358018498 -2.7780271904281992
lowerneck -13.047744736179846 -3.451222645021803 -1.6709879414745488
upperneck 12.742452620350422 -4.899093382635534 3.4628925815940215
head 6.040658392476714 -2.2325425321594685 0.937086045834731
rclavicle -3.4203183138886534E-15 -1.577261021521034E-15
rhumerus -30.686164885560828 -17.184644358710596 -84.05120523452945
rradius 20.880763257576447
rwrist 14.20116441596237
rhand -19.005787164573768 30.812537959313637
rfingers 7.125019999999999
rthumb 7.312487125890882 0.7624083980659577
lclavicle -4.544870257799814E-15 -1.1800479093875384E-15
lhumerus -35.05732155892159 8.310530231434695 79.61279426960327
lradius 16.399387999121902
lwrist -1.5475110563440864
lhand -27.21622543433046 27.294026928285945
lfingers 7.125019999999987
lthumb -0.6758534462892483 57.36946043760396
rfemur -10.4403589028074 5.503508248868986 28.585955415993194
rtibia 39.66868983910703
rfoot -9.417507590518179 -6.166872077766207
rtoes 5.16425563645156
lfemur -19.051685037576473 0.19509416486519404 -17.109507337322647
ltibia 37.96576089683837
lfoot -1.900641884818965 -4.589520772474282
ltoes -3.1799696008268974
392
root 0 0 0 -1.9660620635495223 -6.105687026872143 -7.217873353544454
lowerback 8.762300716241246 2.984633205506366 5.645551419493633
upperback 0.11046417635932451 4.58614623641578 0.9562396644340789
thorax -4.648575801020064 2.1558275362445416 -2.7398327008474705
lowerneck -12.97194592201797 -3.4752899407475963 -1.6842354503940908
upperneck 12.803425676166546 -4.932236761624299 3.5000674090461064
head 6.0508757450958015 -2.2471937230310846 0.9483202174756642
rclavicle -3.3012699242855497E-15 -1.6050182644799566E-15
rhumerus -30.647528625064442 -17.262929290865763 -83.95452795242481
rradius 20.881509241486746
rwrist 14.01043222384897
rhand -18.998560291514682 30.8005346486172
rfingers 7.12502
rthumb 7.31888275250961 0.75154225810914
lclavicle -4.43489865045366E-15 -1.2014894136636148E-15
lhumerus -35.037028572364335 8.245103948460821 79.5899129818139
lradius 16.50658193572594
lwrist -1.4528719056587254
lhand -27.243652277748843 27.334083686914628
lfingers 7.125019999999988
lthumb -0.7018024120185782 57.41249664400188
rfemur -10.794165514190134 5.433490429756805 28.446556650230548
rtibia 39.98647204411482
rfoot -9.224057450963162 -6.201753568270204
rtoes 5.198826146160351
lfemur -18.69601079256203 0.04950420173384584 -17.27708737457812
ltibia 37.65268588744847
lfoot -2.097163821192588 -4.494578750940592
ltoes -2.9500475078828217
393
root 0 0 0 -1.9985889852862848 -6.096615145450308 -7.161580713788485
lowerback 8.83960603263773 2.979415904582247 5.586169480777167
upperback 0.16397136260376954 4.57361696542515 0.9580466338544381
thorax -4.634199509883026 2.1514741172737457 -2.7025295513871277
lowerneck -12.909167119973883 -3.4934670550918803 -1.697005305764601
upperneck 12.871756144134569 -4.95492350245201 3.522791453972471
head 6.063819998385178 -2.2577237485531967 0.9552868781522512
rclavicle -3.2092241255550257E-15 -1.621453031342602E-15
rhumerus -30.590393258649634 -17.340036961493105 -83.85837691757445
rradius 20.946659220585424
rwrist 13.874826235108696
rhand -19.01395166923913 30.79613775382454
rfingers 7.12502
rthumb 7.303675609278109 0.7455291733799569
lclavicle -4.350992626544519E-15 -1.2237520217167278E-15
lhumerus -35.013896120993685 8.179993009322684 79.57520516758608
lradius 16.60653627202223
lwrist -1.364152425246377
lhand -27.268430727190108 27.372390461713852
lfingers 7.125019999999989
lthumb -0.7252622574233447 57.45321986513607
rfemur -11.12713045200401 5.371899573664156 28.323752343904047
rtibia 40.27222907801959
rfoot -9.0561384116929 -6.239133324444468
rtoes 5.2244302140043954
lfemur -18.346425540210287 -0.11153304542239573 -17.435995632939655
ltibia 37.32416418841891
lfoot -2.3059096535513532 -4.380641714947611
ltoes -2.7348444352662256
